M48
; DRILL file {KiCad (5.1.4)-1} date 8/22/2020 11:48:46 PM
; FORMAT={-:-/ absolute / metric / decimal}
; #@! TF.CreationDate,2020-08-22T23:48:46-07:00
; #@! TF.GenerationSoftware,Kicad,Pcbnew,(5.1.4)-1
FMAT,2
METRIC
T1C0.400
T2C0.500
T3C1.000
T4C1.470
T5C1.500
T6C0.400
T7C1.750
T8C3.048
T9C3.988
%
G90
G05
T1
X67.263Y-53.415
X67.3Y-57.45
X114.875Y-57.45
X114.925Y-55.45
X117.0Y-67.25
X121.25Y-53.75
X162.475Y-57.45
X162.525Y-54.95
X164.75Y-53.75
X200.65Y-54.45
X200.65Y-57.45
X202.75Y-53.75
X238.625Y-57.45
X238.7Y-53.95
X240.75Y-53.25
X270.5Y-53.0
X276.8Y-53.45
X276.825Y-57.45
X278.75Y-53.0
X309.0Y-52.75
X314.925Y-52.95
X314.925Y-57.45
X316.75Y-52.5
X347.8Y-52.45
X347.9Y-57.45
X357.75Y-5.5
X358.75Y-48.75
X362.511Y-49.661
X364.576Y-39.876
X365.5Y-6.25
X366.446Y-52.953
X368.75Y-76.25
X370.6Y-36.4
X370.8Y-44.4
X373.4Y-31.0
X373.45Y-29.75
X378.0Y-41.0
X378.705Y-8.869
X380.224Y-25.82
X380.375Y-33.1
X380.679Y-17.475
X381.2Y-31.0
X381.591Y-22.678
X382.2Y-49.8
X382.775Y-52.025
X384.073Y-33.827
X385.25Y-15.25
X385.6Y-8.6
X385.966Y-44.998
X387.175Y-8.95
X388.534Y-44.335
X388.926Y-43.415
X389.37Y-34.53
X389.9Y-42.925
X392.314Y-40.489
X392.4Y-39.0
X393.927Y-40.5
X397.0Y-37.25
X401.0Y-35.5
T3
X393.375Y-5.7
X393.375Y-20.2
X395.875Y-20.2
X398.375Y-5.7
X398.375Y-20.2
X383.11Y-18.825
X383.11Y-21.365
X383.11Y-23.905
X385.65Y-18.825
X385.65Y-21.365
X385.65Y-23.905
T4
X244.427Y-48.26
X250.777Y-45.72
X134.89Y-10.16
X141.24Y-7.62
X158.702Y-67.31
X165.052Y-64.77
X353.965Y-10.16
X360.315Y-7.62
X72.977Y-10.16
X79.328Y-7.62
X168.227Y-48.26
X174.577Y-45.72
X287.29Y-86.36
X293.64Y-83.82
X258.715Y-29.21
X265.065Y-26.67
X15.827Y-48.26
X22.177Y-45.72
X292.053Y-86.36
X298.402Y-83.82
X344.44Y-10.16
X350.79Y-7.62
X34.877Y-10.16
X41.227Y-7.62
X53.927Y-48.26
X60.277Y-45.72
X253.952Y-67.31
X260.303Y-64.77
X220.615Y-29.21
X226.965Y-26.67
X234.903Y-67.31
X241.252Y-64.77
X296.815Y-29.21
X303.165Y-26.67
X249.19Y-10.16
X255.54Y-7.62
X358.727Y-29.21
X365.077Y-26.67
X387.303Y-90.329
X393.652Y-87.789
X130.127Y-48.26
X136.477Y-45.72
X282.527Y-48.26
X288.877Y-45.72
X273.002Y-67.31
X279.352Y-64.77
X96.79Y-10.16
X103.14Y-7.62
X71.707Y-38.735
X74.248Y-45.085
X211.09Y-10.16
X217.44Y-7.62
X108.696Y-67.31
X115.046Y-64.77
X53.927Y-86.36
X60.277Y-83.82
X182.515Y-29.21
X188.865Y-26.67
X392.065Y-48.26
X398.415Y-45.72
X122.984Y-86.36
X129.334Y-83.82
X34.877Y-29.21
X41.227Y-26.67
X225.377Y-48.26
X231.727Y-45.72
X15.827Y-29.21
X22.177Y-26.67
X149.177Y-48.26
X155.528Y-45.72
X349.202Y-90.329
X355.553Y-87.789
X239.665Y-29.21
X246.015Y-26.67
X153.94Y-10.16
X160.29Y-7.62
X392.065Y-29.21
X398.415Y-26.67
X25.352Y-86.36
X31.702Y-83.82
X392.065Y-10.16
X398.415Y-7.62
X315.865Y-29.21
X322.215Y-26.67
X325.39Y-10.16
X331.74Y-7.62
X351.584Y-48.26
X357.934Y-45.72
X196.802Y-67.31
X203.153Y-64.77
X103.934Y-48.26
X110.284Y-45.72
X71.707Y-76.835
X74.248Y-83.185
X34.877Y-67.31
X41.227Y-64.77
X99.171Y-48.26
X105.521Y-45.72
X306.34Y-86.36
X312.69Y-83.82
X115.84Y-10.16
X122.19Y-7.62
X325.39Y-86.36
X331.74Y-83.82
X277.765Y-29.21
X284.115Y-26.67
X177.752Y-67.31
X184.102Y-64.77
X53.927Y-10.16
X60.277Y-7.62
X368.252Y-90.329
X374.602Y-87.789
X125.365Y-29.21
X131.715Y-26.67
X53.927Y-67.31
X60.277Y-64.77
X218.234Y-86.36
X224.584Y-83.82
X306.34Y-10.16
X312.69Y-7.62
X263.477Y-48.26
X269.827Y-45.72
X292.053Y-67.31
X298.402Y-64.77
X201.565Y-29.21
X207.915Y-26.67
X187.278Y-48.26
X193.627Y-45.72
X172.99Y-10.16
X179.34Y-7.62
X320.627Y-86.36
X326.977Y-83.82
X163.465Y-29.21
X169.815Y-26.67
X15.827Y-10.16
X22.177Y-7.62
X34.877Y-48.26
X41.227Y-45.72
X192.04Y-10.16
X198.39Y-7.62
X392.065Y-67.31
X398.415Y-64.77
X144.415Y-29.21
X150.765Y-26.67
X334.915Y-29.21
X341.265Y-26.67
X368.252Y-71.279
X374.602Y-68.739
X363.49Y-10.16
X369.84Y-7.62
X311.102Y-67.31
X317.452Y-64.77
X320.627Y-48.26
X326.977Y-45.72
X287.29Y-10.16
X293.64Y-7.62
X101.552Y-29.21
X107.902Y-26.67
X120.602Y-67.31
X126.953Y-64.77
X301.577Y-48.26
X307.928Y-45.72
X99.171Y-86.36
X105.521Y-83.82
X99.171Y-67.31
X105.521Y-64.77
X206.327Y-48.26
X212.677Y-45.72
X337.296Y-67.31
X343.646Y-64.77
X215.852Y-67.31
X222.202Y-64.77
X230.14Y-10.16
X236.49Y-7.62
X139.653Y-67.31
X146.002Y-64.77
X146.796Y-86.36
X153.146Y-83.82
X268.24Y-10.16
X274.59Y-7.62
X15.827Y-67.31
X22.177Y-64.77
X53.927Y-29.21
X60.277Y-26.67
T6
X377.69Y-2.32
X385.19Y-2.32
T7
X271.733Y-69.85
X281.892Y-69.85
X95.52Y-12.7
X105.68Y-12.7
X76.787Y-36.195
X76.787Y-46.355
X209.82Y-12.7
X219.98Y-12.7
X107.426Y-69.85
X117.586Y-69.85
X52.657Y-88.9
X62.817Y-88.9
X181.245Y-31.75
X191.405Y-31.75
X390.795Y-50.8
X400.955Y-50.8
X121.714Y-88.9
X131.874Y-88.9
X33.608Y-31.75
X43.767Y-31.75
X224.107Y-50.8
X234.267Y-50.8
X14.557Y-31.75
X24.717Y-31.75
X147.907Y-50.8
X158.067Y-50.8
X347.933Y-92.869
X358.092Y-92.869
X238.395Y-31.75
X248.555Y-31.75
X152.67Y-12.7
X162.83Y-12.7
X390.795Y-31.75
X400.955Y-31.75
X24.082Y-88.9
X34.242Y-88.9
X390.795Y-12.7
X400.955Y-12.7
X314.595Y-31.75
X324.755Y-31.75
X324.12Y-12.7
X334.28Y-12.7
X350.314Y-50.8
X360.474Y-50.8
X195.532Y-69.85
X205.692Y-69.85
X102.664Y-50.8
X112.824Y-50.8
X76.787Y-74.295
X76.787Y-84.455
X33.608Y-69.85
X43.767Y-69.85
X97.901Y-50.8
X108.061Y-50.8
X305.07Y-88.9
X315.23Y-88.9
X114.57Y-12.7
X124.73Y-12.7
X324.12Y-88.9
X334.28Y-88.9
X276.495Y-31.75
X286.655Y-31.75
X176.482Y-69.85
X186.642Y-69.85
X52.657Y-12.7
X62.817Y-12.7
X366.982Y-92.869
X377.142Y-92.869
X124.095Y-31.75
X134.255Y-31.75
X52.657Y-69.85
X62.817Y-69.85
X216.964Y-88.9
X227.124Y-88.9
X305.07Y-12.7
X315.23Y-12.7
X262.207Y-50.8
X272.368Y-50.8
X290.782Y-69.85
X300.942Y-69.85
X200.295Y-31.75
X210.455Y-31.75
X186.007Y-50.8
X196.167Y-50.8
X171.72Y-12.7
X181.88Y-12.7
X319.357Y-88.9
X329.517Y-88.9
X162.195Y-31.75
X172.355Y-31.75
X14.557Y-12.7
X24.717Y-12.7
X33.608Y-50.8
X43.767Y-50.8
X190.77Y-12.7
X200.93Y-12.7
X390.795Y-69.85
X400.955Y-69.85
X143.145Y-31.75
X153.305Y-31.75
X333.645Y-31.75
X343.805Y-31.75
X366.982Y-73.819
X377.142Y-73.819
X362.22Y-12.7
X372.38Y-12.7
X309.832Y-69.85
X319.993Y-69.85
X319.357Y-50.8
X329.517Y-50.8
X286.02Y-12.7
X296.18Y-12.7
X100.282Y-31.75
X110.442Y-31.75
X119.332Y-69.85
X129.493Y-69.85
X300.308Y-50.8
X310.467Y-50.8
X97.901Y-88.9
X108.061Y-88.9
X97.901Y-69.85
X108.061Y-69.85
X205.058Y-50.8
X215.218Y-50.8
X336.026Y-69.85
X346.186Y-69.85
X214.582Y-69.85
X224.742Y-69.85
X228.87Y-12.7
X239.03Y-12.7
X138.382Y-69.85
X148.542Y-69.85
X145.526Y-88.9
X155.686Y-88.9
X266.97Y-12.7
X277.13Y-12.7
X14.557Y-69.85
X24.717Y-69.85
X52.657Y-31.75
X62.817Y-31.75
X243.157Y-50.8
X253.317Y-50.8
X133.62Y-12.7
X143.78Y-12.7
X157.433Y-69.85
X167.593Y-69.85
X352.695Y-12.7
X362.855Y-12.7
X71.707Y-12.7
X81.867Y-12.7
X166.957Y-50.8
X177.117Y-50.8
X286.02Y-88.9
X296.18Y-88.9
X257.445Y-31.75
X267.605Y-31.75
X14.557Y-50.8
X24.717Y-50.8
X290.782Y-88.9
X300.942Y-88.9
X343.17Y-12.7
X353.33Y-12.7
X33.608Y-12.7
X43.767Y-12.7
X52.657Y-50.8
X62.817Y-50.8
X252.682Y-69.85
X262.842Y-69.85
X219.345Y-31.75
X229.505Y-31.75
X233.632Y-69.85
X243.792Y-69.85
X295.545Y-31.75
X305.705Y-31.75
X247.92Y-12.7
X258.08Y-12.7
X357.457Y-31.75
X367.618Y-31.75
X386.032Y-92.869
X396.192Y-92.869
X128.857Y-50.8
X139.017Y-50.8
X281.257Y-50.8
X291.417Y-50.8
T8
X345.869Y-5.715
X369.681Y-5.715
X69.802Y-29.369
X69.802Y-53.181
X100.6Y-62.865
X124.412Y-62.865
X17.256Y-81.915
X41.069Y-81.915
X343.488Y-43.815
X367.3Y-43.815
X69.802Y-67.469
X69.802Y-91.281
X172.044Y-81.915
X272.044Y-81.915
T9
X200.612Y-69.85
X107.744Y-50.8
X76.787Y-79.375
X85.042Y-67.469
X85.042Y-91.281
X38.688Y-69.85
X102.981Y-50.8
X310.15Y-88.9
X119.65Y-12.7
X329.2Y-88.9
X281.575Y-31.75
X181.562Y-69.85
X57.737Y-12.7
X372.062Y-92.869
X129.175Y-31.75
X57.737Y-69.85
X172.044Y-97.155
X222.044Y-88.9
X272.044Y-97.155
X310.15Y-12.7
X267.287Y-50.8
X295.863Y-69.85
X205.375Y-31.75
X191.087Y-50.8
X176.8Y-12.7
X324.438Y-88.9
X167.275Y-31.75
X19.637Y-12.7
X38.688Y-50.8
X195.85Y-12.7
X395.875Y-69.85
X148.225Y-31.75
X338.725Y-31.75
X372.062Y-73.819
X367.3Y-12.7
X314.912Y-69.85
X324.438Y-50.8
X291.1Y-12.7
X105.362Y-31.75
X124.412Y-69.85
X305.387Y-50.8
X102.981Y-88.9
X102.981Y-69.85
X210.137Y-50.8
X341.106Y-69.85
X219.662Y-69.85
X233.95Y-12.7
X143.463Y-69.85
X150.606Y-88.9
X272.05Y-12.7
X19.637Y-69.85
X57.737Y-31.75
X248.237Y-50.8
X138.7Y-12.7
X162.512Y-69.85
X345.869Y-20.955
X357.775Y-12.7
X369.681Y-20.955
X76.787Y-12.7
X172.037Y-50.8
X291.1Y-88.9
X262.525Y-31.75
X19.637Y-50.8
X295.863Y-88.9
X348.25Y-12.7
X38.688Y-12.7
X57.737Y-50.8
X257.762Y-69.85
X224.425Y-31.75
X238.712Y-69.85
X300.625Y-31.75
X253.0Y-12.7
X362.537Y-31.75
X391.112Y-92.869
X133.938Y-50.8
X286.337Y-50.8
X276.812Y-69.85
X100.6Y-12.7
X76.787Y-41.275
X85.042Y-29.369
X85.042Y-53.181
X214.9Y-12.7
X100.6Y-78.105
X112.506Y-69.85
X124.412Y-78.105
X57.737Y-88.9
X186.325Y-31.75
X395.875Y-50.8
X126.794Y-88.9
X38.688Y-31.75
X229.188Y-50.8
X19.637Y-31.75
X152.987Y-50.8
X353.012Y-92.869
X243.475Y-31.75
X157.75Y-12.7
X395.875Y-31.75
X17.256Y-97.155
X29.162Y-88.9
X41.069Y-97.155
X395.875Y-12.7
X319.675Y-31.75
X329.2Y-12.7
X343.488Y-59.055
X355.394Y-50.8
X367.3Y-59.055
T2
G00X375.865Y2.935
M15
G01X375.865Y1.785
M16
G05
G00X375.865Y-1.665
M15
G01X375.865Y-2.815
M16
G05
G00X387.015Y2.935
M15
G01X387.015Y1.785
M16
G05
G00X387.015Y-1.665
M15
G01X387.015Y-2.815
M16
G05
T5
G00X390.275Y-13.35
M15
G01X390.275Y-12.05
M16
G05
G00X401.475Y-13.35
M15
G01X401.475Y-12.05
M16
G05
T0
M30
