G04 #@! TF.GenerationSoftware,KiCad,Pcbnew,(5.1.4)-1*
G04 #@! TF.CreationDate,2020-08-22T23:48:37-07:00*
G04 #@! TF.ProjectId,Southpaw,536f7574-6870-4617-972e-6b696361645f,rev?*
G04 #@! TF.SameCoordinates,Original*
G04 #@! TF.FileFunction,Profile,NP*
%FSLAX46Y46*%
G04 Gerber Fmt 4.6, Leading zero omitted, Abs format (unit mm)*
G04 Created by KiCad (PCBNEW (5.1.4)-1) date 2020-08-22 23:48:37*
%MOMM*%
%LPD*%
G04 APERTURE LIST*
%ADD10C,0.200000*%
%ADD11C,0.150000*%
G04 APERTURE END LIST*
D10*
X405400000Y-101393750D02*
G75*
G02X404400000Y-102393750I-1000000J0D01*
G01*
X11112500Y-102393750D02*
G75*
G02X10112500Y-101393750I0J1000000D01*
G01*
X10112500Y-4175000D02*
G75*
G02X11112500Y-3175000I1000000J0D01*
G01*
X404400000Y-3175000D02*
G75*
G02X405400000Y-4175000I0J-1000000D01*
G01*
X373820000Y4110000D02*
X373820000Y-3175000D01*
X11112500Y-3175000D02*
X373820000Y-3175000D01*
X389060000Y-3175000D02*
X389060000Y4110000D01*
X404400000Y-3175000D02*
X389060000Y-3175000D01*
X10112500Y-101393750D02*
X10112500Y-4175000D01*
X404400000Y-102393750D02*
X11112500Y-102393750D01*
X405400000Y-4175000D02*
X405400000Y-101393750D01*
D11*
X386110000Y4110000D02*
X389060000Y4110000D01*
X386110000Y-1490000D02*
X386110000Y4110000D01*
X377589616Y-1490000D02*
X377690000Y-1490000D01*
X376770000Y4110000D02*
X376770000Y-1490000D01*
X373820000Y4110000D02*
X376770000Y4110000D01*
X378902434Y-2190000D02*
X383977566Y-2190000D01*
X385290384Y-1490000D02*
X385190000Y-1490000D01*
X384471199Y-1905000D02*
G75*
G02X385190000Y-1490000I718801J-415000D01*
G01*
X378408801Y-1905000D02*
G75*
G03X377690000Y-1490000I-718801J-415000D01*
G01*
X385550192Y-1640000D02*
G75*
G03X386110000Y-1490000I259808J150000D01*
G01*
X385550192Y-1640000D02*
G75*
G03X385290384Y-1490000I-259808J-150000D01*
G01*
X384471199Y-1905000D02*
G75*
G02X383977565Y-2190000I-493634J285000D01*
G01*
X378408801Y-1905000D02*
G75*
G03X378902435Y-2190000I493634J285000D01*
G01*
X377329808Y-1640000D02*
G75*
G02X377589616Y-1490000I259808J-150000D01*
G01*
X377329808Y-1640000D02*
G75*
G02X376770000Y-1490000I-259808J150000D01*
G01*
M02*
